<svg xmlns="http://www.w3.org/2000/svg" width="144.69" height="82.929" viewBox="0 0 144.69 82.929"><g transform="translate(1.73 55.109)"><path d="M650.057,611.4c-.939,2.164-.372,11.677.734,15.094h-8.419a87.8,87.8,0,0,0,.072-27.467c.467-.023,1.324-.11,2.18-.1,7.6.068,5.821-.9,9.1,5.815.772,1.582,1.467,3.2,2.24,4.782a3.264,3.264,0,0,0,1.266,1.349c.137-3.932.815-7.829-.823-11.784h8.15a99.724,99.724,0,0,0-.021,27.389c-1.977,0-4.362.107-6.725-.083-.53-.043-1.113-1.069-1.433-1.752-1.783-3.8-3.485-7.647-5.238-11.466A19.022,19.022,0,0,0,650.057,611.4Z" transform="translate(-523.33 -598.867)"/><path d="M604.009,607.4H596.7a5.851,5.851,0,0,0,.391-1.58c-.023-.352-.372-.96-.606-.974a12.587,12.587,0,0,0-3.887.075c-1.589.422-1.218,1.975-1.187,3.185a1.776,1.776,0,0,0,1.917,1.932c1.874.021,3.748-.01,5.622.012,2.923.037,4.534,1.638,4.557,4.534.021,2.612.031,5.225,0,7.838a4.047,4.047,0,0,1-4.164,4.236q-4.94.093-9.881,0a4.045,4.045,0,0,1-4.16-4.211c-.064-1.39-.3-2.774-.476-4.329h7.285c-.172.492-.256.809-.389,1.1-.517,1.152.023,1.6,1.107,1.632.964.029,1.934.052,2.9-.008,1.675-.1,1.514-1.384,1.525-2.519.01-1.156.1-2.412-1.572-2.472-1.475-.052-2.954.01-4.429-.037a19.083,19.083,0,0,1-2.875-.277,3.579,3.579,0,0,1-3.032-3.57c-.052-2.9-.041-5.792-.016-8.69.023-2.617,1.4-4.2,4.025-4.294,3.291-.124,6.592-.134,9.881,0,2.869.118,4.207,1.748,4.3,4.648C603.571,604.8,603.819,605.965,604.009,607.4Z" transform="translate(-584.822 -598.889)"/><path d="M650.307,612.754c0,3.123.015,6.247,0,9.37-.016,2.968-1.553,4.524-4.482,4.54q-4.514.028-9.031,0c-2.972-.018-4.689-1.694-4.7-4.609q-.025-9.116,0-18.232c.006-3.014,1.711-4.817,4.7-4.878,3.008-.064,6.021-.056,9.029,0,2.89.049,4.466,1.7,4.484,4.611C650.322,606.618,650.307,609.686,650.307,612.754Zm-11.945.078q0,2.206,0,4.414c0,3.645.178,3.787,3.847,3.63,1.324-.056,2.025-.627,2.027-1.948.01-4.077.016-8.152-.008-12.229a1.78,1.78,0,0,0-2.042-1.953c-.623.008-1.247.01-1.87,0-1.344-.027-1.969.635-1.959,1.971C638.372,608.755,638.362,610.793,638.362,612.832Z" transform="translate(-534.325 -598.877)"/><path d="M618.387,626.382c1.165-2.8.668-5.461.215-8.146-.24-1.413-1-1.562-2.044-1.071a17.351,17.351,0,0,0-3.095,1.779c-2.238,1.69-1.4,4.081-1.251,6.288a5.17,5.17,0,0,0,.416,1.142h-8.663c2.782-8.845,4.154-17.948,5.484-27.362h12.614c-.987,4.149.844,7.98,1.353,11.954.469,3.645,1.305,7.248,2.12,10.837a39.6,39.6,0,0,0,1.643,4.58Zm-2.608-21.518-.769-.019c-.414,2.335-.852,4.667-1.2,7.01-.027.182.745.72.86.647.776-.5,1.959-1.014,2.106-1.713A10.07,10.07,0,0,0,615.779,604.864Z" transform="translate(-564.367 -598.758)"/><path d="M613.162,605.84c-1.547-.391-2.836-.767-4.147-1.032-1.053-.213-1.638.3-1.611,1.394.143,5.831.267,11.664.48,17.5a12.187,12.187,0,0,0,.821,2.77h-8.659c2.168-6.656.937-13.493,1.241-20.234.054-1.2-.633-1.665-1.746-1.415-1.3.294-2.581.678-4.125,1.092,0-2.031-.1-3.94.076-5.821.042-.436,1.034-1.109,1.6-1.119q7.236-.131,14.471,0c.538.008,1.493.608,1.524,1C613.249,601.9,613.162,603.844,613.162,605.84Z" transform="translate(-573.534 -598.868)"/><path d="M628.94,626.569h-8.721c2.195-6.412,1-12.957,1.274-19.408.1-2.422-.445-2.784-2.832-2.141-.914.244-1.8.579-3,.972,0-2.126-.1-4.079.081-6,.037-.406,1.088-1.014,1.682-1.024,4.708-.083,9.418-.039,14.125-.047a1.753,1.753,0,0,1,1.994,1.979c.006,1.616,0,3.231,0,5-1.644-.428-2.923-.811-4.222-1.084-.989-.209-1.725.141-1.7,1.291.141,5.887.277,11.774.492,17.659A12.76,12.76,0,0,0,628.94,626.569Z" transform="translate(-551.899 -598.866)"/><path d="M625.989,598.981h8.994c-2.062,4.548-1.245,9.184-1.231,13.716s-.873,9.18,1.214,13.735h-8.892c2.11-4.431,1.287-9.064,1.268-13.59C627.321,608.3,628.24,603.637,625.989,598.981Z" transform="translate(-540.836 -598.791)"/></g><g transform="translate(33.015 29.498)"><path d="M624.728,603.5a51.773,51.773,0,0,0,0-16.9,14.516,14.516,0,0,0,2.331-.021c2.211-.343,3.535.49,4.222,2.646a31.825,31.825,0,0,0,1.781,3.885c.143.3.341.569.532.881.7-.79.554-4.334-.228-7.289h4.969a64.06,64.06,0,0,0-.079,16.765c-1.179,0-2.641.056-4.091-.048-.3-.021-.635-.6-.817-.993-1.092-2.329-2.137-4.681-3.214-7.018a10.736,10.736,0,0,0-.647-1.059c-.674,1.1-.375,6.816.412,9.151Z" transform="translate(-573.467 -586.508)"/><path d="M638.569,592.612c.306-.544.513-.85.658-1.185.323-.736.029-1.214-.769-1.295-.068-.008-.139,0-.209-.006-2.135-.091-2.244.015-2.242,2.135,0,2.157.019,4.315-.01,6.472-.013.883.35,1.3,1.235,1.266a7.56,7.56,0,0,0,1.454-.043,1.288,1.288,0,0,0,.813-.637c.07-.172-.252-.687-.5-.776-1.493-.538-1.038-1.965-1.4-3-.043-.126.358-.587.557-.59,1.907-.021,3.812.021,5.717.054.085,0,.17.108.339.223-1.036,1.717-.879,3.636-.894,5.533a2.492,2.492,0,0,1-2.747,2.79c-1.878.012-3.756.017-5.637,0a2.605,2.605,0,0,1-2.79-2.811q-.015-5.585,0-11.17a2.743,2.743,0,0,1,2.981-3c1.808-.027,3.618-.031,5.428,0a2.564,2.564,0,0,1,2.763,2.815,17.686,17.686,0,0,1-.025,2.294c-.041.331-.379.875-.61.891C641.386,592.658,640.079,592.612,638.569,592.612Z" transform="translate(-565.551 -586.466)"/><path d="M599.992,603.427a56.266,56.266,0,0,0-.046-16.8,7.787,7.787,0,0,1,.78-.066q4.068-.009,8.133,0c1.251,0,1.429.192,1.431,1.458v2.675c-1.6-.2-3.053-.451-4.518-.55-1.245-.083-1.52.283-1.446,1.543.124,2.141.445,2.385,2.592,1.905.668-.151,1.322-.366,2.13-.592v4.164c-1.293-.182-2.476-.374-3.667-.509a.914.914,0,0,0-1.1,1.065c.126,1.88.325,3.754.5,5.711Z" transform="translate(-599.946 -586.461)"/><path d="M615.314,586.6h5.169c-1.274,3.076-.583,6.191-.753,9.244-.043.763.064,1.539-.021,2.294-.23,2.042.047,1.88,1.837,1.721a22.085,22.085,0,0,0,2.755-.61c0,1.235.029,2.466-.031,3.69-.008.194-.416.527-.641.532-2.807.037-5.616.023-8.286.023A55.012,55.012,0,0,0,615.314,586.6Z" transform="translate(-583.526 -586.414)"/><path d="M619.02,599.359c0,1.125.037,2.3-.031,3.469a.933.933,0,0,1-.65.635c-2.8.043-5.612.029-8.3.029a54,54,0,0,0-.014-16.9h5.088c-1.3,4.139-.358,8.33-.753,12.444-.066.7.3.966.939.879C616.486,599.758,617.667,599.563,619.02,599.359Z" transform="translate(-589.178 -586.414)"/><path d="M620.811,586.6h5.4c-.962,4.476-.96,13.058.006,16.813h-5.37c1.307-2.726.786-5.566.78-8.338S622.176,589.435,620.811,586.6Z" transform="translate(-577.652 -586.413)"/><path d="M611.527,603.444h-5.388c1.283-2.774.786-5.641.784-8.448,0-2.776.513-5.618-.813-8.4h5.3c-1.146,4.855-.49,9.71-.515,14.533A9.378,9.378,0,0,0,611.527,603.444Z" transform="translate(-593.36 -586.416)"/></g><path d="M611.222,573.219c1.272-.091,2.668-.269,4.058-.24.418.01.947.519,1.21.935.9,1.425,1.7,2.917,2.544,4.375.182.31.416.589.627.883l.463-.145-.873-6.429,4.3-.352c-.532,4.414.107,12.384,1.247,15.154a36.257,36.257,0,0,1-3.738.2c-.374-.015-.838-.54-1.072-.941-1.127-1.932-2.184-3.905-3.278-5.856a2.286,2.286,0,0,0-.916-.922c.316,2.693-.186,5.452,1.222,8.115l-4.668.374A48.379,48.379,0,0,0,611.222,573.219Z" transform="translate(-554.883 -572.247)"/><path d="M601.06,587.892l3.5-1.309c.341.511.722,1.274.846,1.235a5.314,5.314,0,0,0,2.31-1.154c.23-.25-.341-1.316-.678-1.94-.076-.141-.726-.058-1.071.052-1.007.321-1.982.763-3,1.057a2.115,2.115,0,0,1-2.888-1.46q-.769-2.039-1.483-4.1a2.113,2.113,0,0,1,1.227-3c1.74-.726,3.51-1.386,5.3-1.98a2.154,2.154,0,0,1,2.919,1.415c.275.635.635,1.233,1.045,2.013l-3.7,1.4c-.256-.625.066-1.617-1.131-1.214-1.841.62-2.188.964-1.806,2.118.4,1.2.8,1.411,1.9,1,.92-.341,1.829-.724,2.759-1.03a2.212,2.212,0,0,1,3.016,1.444c.521,1.355,1.026,2.718,1.473,4.1a2.188,2.188,0,0,1-1.378,2.95q-2.516,1.012-5.07,1.916a2.182,2.182,0,0,1-3.03-1.382C601.831,589.354,601.469,588.713,601.06,587.892Z" transform="translate(-568.593 -569.16)"/><path d="M594.036,586.065l-2.95,2.495c-.6-.23-.406-1.52-1.429-.8-1.6,1.121-1.864,1.7-1.113,2.65.831,1.059,1.22,1.115,2.2.3.724-.6,1.427-1.233,2.17-1.812a2.229,2.229,0,0,1,3.336.283c.958,1.094,1.891,2.209,2.809,3.334a2.2,2.2,0,0,1-.188,3.254q-2.06,1.849-4.232,3.568a2.23,2.23,0,0,1-3.252-.323c-.529-.556-1.113-1.061-1.766-1.68l2.842-2.385c.538.393,1.156.974,1.257.9a5.3,5.3,0,0,0,1.769-1.884c.128-.318-.782-1.123-1.322-1.593-.122-.108-.7.2-1,.422-.844.639-1.613,1.382-2.48,1.988a2.136,2.136,0,0,1-3.219-.41q-1.43-1.647-2.813-3.33a2.166,2.166,0,0,1,.207-3.324q1.964-1.781,4.05-3.419a2.308,2.308,0,0,1,3.519.348C592.888,585.115,593.415,585.516,594.036,586.065Z" transform="translate(-583.985 -560.084)"/><path d="M639.8,574.915a86.32,86.32,0,0,0-.612,15.484l-4.292-1.028c.3-1.547.594-2.972.838-4.408.141-.817-.3-1.041-1.051-.906-2.615.463-3.21,1.227-3.326,4.453l-4.582-1.107a101.447,101.447,0,0,0,6.615-14.037Zm-4.129,2.143c-.585,1.225-1.086,2.222-1.537,3.241a3.043,3.043,0,0,0-.108.879,3.074,3.074,0,0,0,.98.019C636.06,580.862,636.48,578.754,635.669,577.058Z" transform="translate(-538.267 -571.049)"/><path d="M588.585,585.28l4.149-2.664c.449,2.838,2.313,4.745,3.589,6.965.43.749.941,1.448,1.388,2.188.879,1.456.98,1.485,2.433.538,1.119-.73,1.148-.952.426-2.046-1.038-1.572-2-3.192-3.072-4.745-.916-1.336-1.932-2.606-2.985-4.015l3.719-2.408c1.307,4.2,4.157,7.358,6.259,10.948.968,1.653.788,2.716-.817,3.767-1.344.881-2.7,1.754-4.071,2.594a2.285,2.285,0,0,1-3.5-.817c-.9-1.386-1.75-2.8-2.668-4.164C592,589.291,590.953,586.871,588.585,585.28Z" transform="translate(-579.07 -564.932)"/><path d="M610.705,573.978l4.53-.852c-.488,3.87.918,7.289,1.411,10.833.1.7.267,1.388.383,2.085a2.166,2.166,0,0,1-1.829,2.681c-1.766.366-3.543.7-5.324.987a2.163,2.163,0,0,1-2.7-1.944c-.476-2.387-.887-4.786-1.413-7.161-.395-1.775-.929-3.518-1.444-5.44l4.346-.794c-.405,3.883,1.024,7.374,1.5,11,.176,1.34,1.278.809,2.081.705s1.3-.461,1.1-1.419c-.525-2.5-.964-5.01-1.529-7.5A29.272,29.272,0,0,0,610.705,573.978Z" transform="translate(-562.254 -571.308)"/><path d="M621.95,572.441l4.762.279c-1.092,3.357.356,6.359.829,9.5,1.181-2.939,2.53-5.8,1.924-9.319l4.733.283c-1.365,4.729-2.7,9.345-4.023,13.969a1.131,1.131,0,0,1-1.373.943c-1.016-.1-2.035-.178-3.055-.194a1.172,1.172,0,0,1-1.305-1.175q-.918-5.988-1.909-11.966C622.411,574.038,622.178,573.335,621.95,572.441Z" transform="translate(-543.421 -572.04)"/><path d="M655.073,587.212c-1.181-.982-2.19-1.9-3.283-2.712-1.171-.867-1.545.246-2.054.947-.54.745-.525,1.407.38,1.826.879.41,1.787.757,2.908,1.225l-1.977,3.07c-.937-.836-1.7-1.558-2.5-2.224-.73-.6-1.223-.157-1.62.476-.407.649-1.121,1.357-.1,2,1.274.807,2.631,1.485,4.141,2.325-.443.668-.97,1.564-1.611,2.368a1.081,1.081,0,0,1-1.022.058c-2.493-1.558-4.954-3.169-7.328-4.7a51.693,51.693,0,0,0,8.241-12.75c.542.339,1.229.757,1.905,1.191,1.655,1.061,3.3,2.139,4.956,3.188.712.449.865.933.341,1.642C655.933,585.828,655.5,586.566,655.073,587.212Z" transform="translate(-523.067 -564.903)"/><path d="M652.662,581.753l3.723,3c-1.8,1.216-1.833,3.208-2.525,4.873-.062.147-.013.476.074.515a.779.779,0,0,0,.631,0c1.471-.941,3.19-1.634,3.723-3.829l3.988,3.183c-2.393,1.26-4.658,2.559-7.016,3.661a9.142,9.142,0,0,0-5.324,5.936l-3.808-3.072c.453-.287.819-.48,1.136-.73a7.844,7.844,0,0,0,3.123-4.429c.652-2.9,1.347-5.8,2.029-8.7A2.149,2.149,0,0,1,652.662,581.753Z" transform="translate(-517.587 -562.09)"/><path d="M643.6,576.674l4.158,1.922c-2.662,2.939-3.518,6.708-5.316,9.976a1.045,1.045,0,0,0,.387.949c1.005.391,2.064.652,3.324,1.026-.424.883-.875,1.895-1.409,2.859a.884.884,0,0,1-.815.151c-2.248-1-4.478-2.048-6.671-3.061A52.127,52.127,0,0,0,643.6,576.674Z" transform="translate(-527.069 -567.517)"/><path d="M642.206,588.57c-.333.916-.66,1.911-1.071,2.867a.847.847,0,0,1-.749.348c-2.383-.838-4.751-1.729-7.023-2.569a51.51,51.51,0,0,0,5.264-14.248l4.313,1.574c-2.435,3.072-2.956,6.865-4.534,10.2-.3.625-.13.982.507,1.127C639.968,588.111,641.029,588.322,642.206,588.57Z" transform="translate(-531.226 -569.34)"/><path d="M594.67,579.3l3.963-2.021a53.422,53.422,0,0,0,6.814,13.6l-3.907,1.973A51.019,51.019,0,0,0,594.67,579.3Z" transform="translate(-572.569 -566.865)"/></svg>